# xmcd CD database file
#
# Track frame offsets:
#	150
#	19353
#	31728
#	47355
#	61915
#	87145
#	101855
#	116845
#	131273
#	154028
#
# Disc length: 2349 seconds
#
# Revision: 3
# Processed by: cddbd v1.5.2PL0 Copyright (c) Steve Scherf et al.
# Submitted via: CDex 1.72
#
DISCID=76092b0a
DTITLE=Welch, Gillian (USA-03-Soul Journey-alt.cty) - Soul Journey
DYEAR=2003
DGENRE=Alt. Country
TTITLE0=Look at Miss Ohio
TTITLE1=Make Me a Pallet on Your Floor
TTITLE2=Wayside, Back in Time
TTITLE3=I Had a Real Good Mother and Father
TTITLE4=One Monkey
TTITLE5=No One Knows My Name
TTITLE6=Lowlands
TTITLE7=One Little Song
TTITLE8=I Made a Lovers Prayer
TTITLE9=Wrecking Ball
EXTD=YEAR: 2003
EXTT0=
EXTT1=
EXTT2=
EXTT3=
EXTT4=
EXTT5=
EXTT6=
EXTT7=
EXTT8=
EXTT9=
PLAYORDER=
